<svg width="31" height="31" viewBox="0 0 31 31" fill="none" xmlns="http://www.w3.org/2000/svg">
<path d="M3.875 7.75H6.45833H27.125" stroke="#F85656" stroke-width="2" stroke-linecap="round" stroke-linejoin="round"/>
<path d="M10.3344 7.74967V5.16634C10.3344 4.4812 10.6066 3.82412 11.091 3.33965C11.5755 2.85518 12.2326 2.58301 12.9177 2.58301H18.0844C18.7695 2.58301 19.4266 2.85518 19.9111 3.33965C20.3955 3.82412 20.6677 4.4812 20.6677 5.16634V7.74967M24.5427 7.74967V25.833C24.5427 26.5182 24.2705 27.1752 23.7861 27.6597C23.3016 28.1442 22.6445 28.4163 21.9594 28.4163H9.04271C8.35757 28.4163 7.70049 28.1442 7.21602 27.6597C6.73155 27.1752 6.45938 26.5182 6.45938 25.833V7.74967H24.5427Z" stroke="#F85656" stroke-width="2" stroke-linecap="round" stroke-linejoin="round"/>
<path d="M12.9156 14.208V21.958" stroke="#F85656" stroke-width="2" stroke-linecap="round" stroke-linejoin="round"/>
<path d="M18.0844 14.208V21.958" stroke="#F85656" stroke-width="2" stroke-linecap="round" stroke-linejoin="round"/>
</svg>
