<svg width="9" height="14" viewBox="0 0 9 14" fill="none" xmlns="http://www.w3.org/2000/svg">
<path d="M7.04175 0.583008H2.37508C1.57008 0.583008 0.916748 1.23634 0.916748 2.04134V11.958C0.916748 12.763 1.57008 13.4163 2.37508 13.4163H7.04175C7.84675 13.4163 8.50008 12.763 8.50008 11.958V2.04134C8.50008 1.23634 7.84675 0.583008 7.04175 0.583008ZM4.70842 12.833C4.22425 12.833 3.83342 12.4422 3.83342 11.958C3.83342 11.4738 4.22425 11.083 4.70842 11.083C5.19258 11.083 5.58342 11.4738 5.58342 11.958C5.58342 12.4422 5.19258 12.833 4.70842 12.833ZM7.33342 10.4997H2.08341V2.33301H7.33342V10.4997Z" fill="#C4C4C4"/>
</svg>
