<svg width="12" height="14" viewBox="0 0 12 14" fill="none" xmlns="http://www.w3.org/2000/svg">
<path d="M2.66656 3.66679H9.33323V4.86012C9.33323 5.16012 9.69323 5.30679 9.89989 5.09346L11.7599 3.23346C11.8932 3.10012 11.8932 2.89346 11.7599 2.76012L9.89989 0.900123C9.69323 0.693457 9.33323 0.840123 9.33323 1.14012V2.33346H1.99989C1.63323 2.33346 1.33323 2.63346 1.33323 3.00012V5.66679C1.33323 6.03346 1.63323 6.33346 1.99989 6.33346C2.36656 6.33346 2.66656 6.03346 2.66656 5.66679V3.66679ZM9.33323 10.3335H2.66656V9.14012C2.66656 8.84012 2.30656 8.69346 2.09989 8.90679L0.239893 10.7668C0.106559 10.9001 0.106559 11.1068 0.239893 11.2401L2.09989 13.1001C2.30656 13.3068 2.66656 13.1601 2.66656 12.8601V11.6668H9.99989C10.3666 11.6668 10.6666 11.3668 10.6666 11.0001V8.33346C10.6666 7.96679 10.3666 7.66679 9.99989 7.66679C9.63323 7.66679 9.33323 7.96679 9.33323 8.33346V10.3335Z" fill="#323232"/>
</svg>
