<svg width="17" height="17" viewBox="0 0 17 17" fill="none" xmlns="http://www.w3.org/2000/svg">
<path d="M8.50001 0.583313C4.13001 0.583313 0.583344 4.12998 0.583344 8.49998C0.583344 12.87 4.13001 16.4166 8.50001 16.4166C12.87 16.4166 16.4167 12.87 16.4167 8.49998C16.4167 4.12998 12.87 0.583313 8.50001 0.583313ZM6.35459 11.8962L3.51251 9.05415C3.20376 8.7454 3.20376 8.24665 3.51251 7.9379C3.82126 7.62915 4.32001 7.62915 4.62876 7.9379L6.91668 10.2179L12.3633 4.77123C12.6721 4.46248 13.1708 4.46248 13.4796 4.77123C13.7883 5.07998 13.7883 5.57873 13.4796 5.88748L7.47084 11.8962C7.17001 12.205 6.66334 12.205 6.35459 11.8962Z" fill="#498AEE"/>
</svg>
