<svg width="79" height="79" viewBox="0 0 79 79" fill="none" xmlns="http://www.w3.org/2000/svg">
<path fill-rule="evenodd" clip-rule="evenodd" d="M0 39.1667C0 17.5467 17.5466 0 39.1666 0C60.7866 0 78.3334 17.5467 78.3334 39.1667C78.3334 60.7867 60.7866 78.3333 39.1666 78.3333C17.5466 78.3333 0 60.7867 0 39.1667Z" fill="#498AEE"/>
<g clip-path="url(#clip0_1480_15176)">
<path d="M60 23.3278C59.989 23.3278 59.9672 23.3169 59.9562 23.3169C59.9234 21.7642 59.1361 20.5723 58.0317 19.5882C56.3697 18.101 54.4342 18.2432 52.3457 18.2432C48.617 18.2432 44.8883 18.2432 41.1596 18.2432C37.8682 18.2432 34.5769 18.2213 31.2965 18.2213C29.6235 18.2213 27.9614 18.2213 26.2884 18.2323C24.8997 18.2432 23.1064 17.9589 21.8052 18.5056C20.6243 18.9868 19.6292 19.6975 18.9294 20.7691C17.7813 22.5405 18.0218 24.6181 18.0218 26.6629C18.0218 29.0466 18.0218 31.4413 18.0218 33.8251C18.0218 39.6751 18.0218 45.5142 18.0218 51.3643C18.0218 52.6436 18.0218 53.9339 18.0218 55.2133C18.0437 55.2461 18.0546 55.2789 18.0656 55.3226C18.1859 56.7988 18.9294 57.9469 20.0119 58.8873C20.8758 59.6309 21.8708 60.112 23.019 60.2213C23.019 60.2213 23.2595 60.2213 23.2705 60.2213C23.4345 60.2213 23.5985 60.2213 23.7625 60.2213H54.8388C54.8716 60.1995 54.9044 60.1776 54.9482 60.1776C54.97 60.1776 54.9919 60.1776 55.0138 60.1776C56.5227 60.112 57.6818 59.3684 58.655 58.264C59.4204 57.4002 59.9125 56.3942 60.0109 55.2242V23.7433C60 23.6012 60 23.459 60 23.3278ZM50.4978 28.0516C50.0713 29.6043 49.6449 31.1461 49.1856 32.6879C48.7045 34.2843 47.2283 35.3669 45.4787 35.3669C44.932 35.3559 44.3415 35.181 43.762 34.9185C41.0611 33.7048 38.2947 33.5298 35.4735 34.4812C35.058 34.6233 34.6644 34.8092 34.2707 34.9951C31.9526 36.1104 29.4157 34.9732 28.7269 32.502C28.3004 30.9821 27.9068 29.4512 27.5022 27.9204C27.2944 27.1987 27.5022 26.6957 28.1583 26.3348C32.215 24.0714 36.5561 23.2185 41.1705 23.634C44.2103 23.9073 47.0752 24.7821 49.7433 26.2583C50.5634 26.7176 50.7493 27.144 50.4978 28.0516Z" fill="white"/>
<path d="M47.4579 27.8438C47.4142 27.8329 47.3814 27.811 47.3486 27.8001C43.8932 26.2036 40.2629 25.6788 36.4905 26.138C34.3473 26.4004 32.3025 27.0018 30.367 27.9532C30.214 28.0297 30.0499 28.0516 30.1265 28.3249C30.4764 29.5278 30.7716 30.7524 31.1106 31.9552C31.3621 32.83 32.2259 33.2018 33.0679 32.841C33.3413 32.7207 33.6037 32.5676 33.8771 32.4692C34.0848 32.3926 34.0958 32.2833 34.0411 32.0974C33.9317 31.7147 33.8333 31.332 33.7349 30.9493C33.549 30.2057 33.8989 29.5824 34.5878 29.3856C35.2548 29.1997 35.9 29.5934 36.1077 30.326C36.2062 30.665 36.3046 31.0039 36.3702 31.3538C36.4248 31.6053 36.5451 31.66 36.7966 31.6163C39.6068 31.157 42.3077 31.5397 44.8883 32.7535C45.0851 32.841 45.2929 32.9175 45.5115 32.9175C46.1348 32.9284 46.6488 32.5238 46.8456 31.8568C47.1627 30.7743 47.436 29.6699 47.786 28.5983C47.95 28.1609 47.8516 27.9641 47.4579 27.8438Z" fill="white"/>
</g>
<defs>
<clipPath id="clip0_1480_15176">
<rect width="42" height="42.0547" fill="white" transform="translate(18 18.1667)"/>
</clipPath>
</defs>
</svg>
