<svg width="80" height="80" viewBox="0 0 80 80" fill="none" xmlns="http://www.w3.org/2000/svg">
<path d="M39.9999 0.833344C18.3799 0.833344 0.833252 18.38 0.833252 40C0.833252 61.62 18.3799 79.1667 39.9999 79.1667C61.6199 79.1667 79.1666 61.62 79.1666 40C79.1666 18.38 61.6199 0.833344 39.9999 0.833344ZM39.9999 12.5833C46.5016 12.5833 51.7499 17.8317 51.7499 24.3333C51.7499 30.835 46.5016 36.0833 39.9999 36.0833C33.4982 36.0833 28.2499 30.835 28.2499 24.3333C28.2499 17.8317 33.4982 12.5833 39.9999 12.5833ZM39.9999 68.2C30.2083 68.2 21.5524 63.1867 16.4999 55.5883C16.6174 47.7942 32.1666 43.525 39.9999 43.525C47.7941 43.525 63.3824 47.7942 63.4999 55.5883C58.4474 63.1867 49.7916 68.2 39.9999 68.2Z" fill="#498AEE"/>
</svg>
