<svg width="79" height="79" viewBox="0 0 79 79" fill="none" xmlns="http://www.w3.org/2000/svg">
<path fill-rule="evenodd" clip-rule="evenodd" d="M0 39.1667C0 17.5467 17.5466 0 39.1666 0C60.7866 0 78.3334 17.5467 78.3334 39.1667C78.3334 60.7867 60.7866 78.3333 39.1666 78.3333C17.5466 78.3333 0 60.7867 0 39.1667Z" fill="#498AEE"/>
<g clip-path="url(#clip0_1477_15164)">
<path d="M22.6231 28.824C22.2582 29.176 21.943 29.4946 21.6113 29.7796C20.4668 30.7184 18.8412 30.6178 17.8294 29.5616C16.8176 28.5055 16.7346 26.829 17.7133 25.7393C18.6753 24.6664 19.7203 23.6773 20.7321 22.6379C21.6279 21.7159 22.5402 20.7938 23.4524 19.8885C24.6799 18.6983 26.3386 18.6815 27.5329 19.8718C29.3907 21.7159 31.2318 23.5767 33.0564 25.4543C34.2507 26.6781 34.2673 28.4384 33.1394 29.5784C31.9948 30.7351 30.303 30.6848 29.0589 29.4778C28.8599 29.2766 28.694 29.0419 28.5115 28.824C28.4618 28.8575 28.4286 28.891 28.3788 28.9078C28.3788 35.6136 28.3788 42.3361 28.3788 49.1257C28.694 48.824 28.9594 48.5558 29.258 48.3043C30.4357 47.2649 32.0778 47.3152 33.1394 48.3881C34.1844 49.4443 34.3005 51.1542 33.2555 52.2439C31.3148 54.2892 29.3243 56.2842 27.3173 58.2624C26.3054 59.2515 24.6467 59.2347 23.6349 58.2456C21.6444 56.3009 19.6706 54.306 17.7465 52.2942C16.7015 51.2045 16.7844 49.4946 17.8128 48.4216C18.8578 47.3487 20.4833 47.2649 21.6444 48.254C21.9596 48.5222 22.2582 48.824 22.6065 49.176C22.6231 42.3697 22.6231 35.6471 22.6231 28.824Z" fill="white"/>
<path d="M49.5275 47.5499C46.2598 47.5499 42.9921 47.5499 39.7244 47.5499C38.4804 47.5499 37.5515 46.9631 37.0539 45.8064C36.5895 44.7167 36.7885 43.6606 37.5681 42.772C38.1652 42.0847 38.9614 41.85 39.824 41.8332C46.293 41.8332 52.762 41.8165 59.231 41.8332C61.0058 41.8332 62.2664 43.057 62.2664 44.6832C62.283 46.3261 60.9892 47.5499 59.1812 47.5499C55.9799 47.5667 52.7454 47.5499 49.5275 47.5499Z" fill="white"/>
<path d="M49.5938 19.0168C52.8118 19.0168 56.0463 19 59.2642 19.0168C60.9561 19.0336 62.0674 20.0227 62.2499 21.6153C62.4157 23.057 61.321 24.482 59.8945 24.6664C59.8116 24.6832 59.712 24.6832 59.6291 24.6832C52.9113 24.6832 46.2101 24.6999 39.4922 24.6664C38.2648 24.6664 37.4188 23.9623 37.0042 22.8056C36.3075 20.8944 37.6676 19.0168 39.8074 19.0168C43.0585 19 46.3262 19.0168 49.5938 19.0168Z" fill="white"/>
<path d="M46.6746 30.4334C49.0631 30.4334 51.4517 30.4166 53.8236 30.4334C55.2004 30.4502 56.2619 31.389 56.5605 32.7134C56.8259 33.9372 56.179 35.2616 55.0345 35.8315C54.5866 36.0495 54.1056 36.1333 53.6246 36.1333C49.0299 36.1333 44.4353 36.1501 39.8406 36.1333C38.5634 36.1333 37.5516 35.5968 37.054 34.373C36.6061 33.2833 36.7886 32.2272 37.5848 31.3387C38.1819 30.6681 38.9615 30.4166 39.8406 30.4166C42.1297 30.4334 44.4021 30.4334 46.6746 30.4334Z" fill="white"/>
<path d="M45.2978 53.3001C47.2385 53.3001 49.1792 53.2498 51.1199 53.3169C53.243 53.4007 54.4539 55.731 53.3757 57.5583C52.8781 58.3965 52.1483 58.933 51.1696 58.933C47.2385 58.9497 43.3073 58.9665 39.3761 58.933C37.8999 58.9162 36.7885 57.6086 36.8051 56.083C36.8217 54.6077 37.933 53.3504 39.3927 53.3169C41.3832 53.2498 43.3405 53.3001 45.2978 53.3001Z" fill="white"/>
</g>
<defs>
<clipPath id="clip0_1477_15164">
<rect width="45.283" height="40" fill="white" transform="translate(17 19)"/>
</clipPath>
</defs>
</svg>
