<svg width="79" height="79" viewBox="0 0 79 79" fill="none" xmlns="http://www.w3.org/2000/svg">
<path fill-rule="evenodd" clip-rule="evenodd" d="M0 39.1667C0 17.5467 17.5467 0 39.1667 0C60.7867 0 78.3333 17.5467 78.3333 39.1667C78.3333 60.7867 60.7867 78.3333 39.1667 78.3333C17.5467 78.3333 0 60.7867 0 39.1667Z" fill="#498AEE"/>
<g clip-path="url(#clip0_1874_18570)">
<path d="M39.4596 23.4244C42.1581 23.4515 44.5058 21.6106 45.0995 18.9846C45.8011 15.8713 43.6423 12.9205 40.8088 12.1895C39.7294 11.8917 38.5691 11.9459 37.4357 12.379C34.8721 13.4078 33.3339 16.2774 33.9276 18.9846C34.5213 21.5564 36.815 23.3973 39.4596 23.4244Z" fill="white"/>
<path d="M56.973 42.1582C56.973 41.9687 56.946 41.7792 56.946 41.5897C56.3524 32.3311 48.4996 23.668 38.8389 24.2907C29.7448 24.8863 22.4318 32.6559 22 41.7521C21.946 42.8891 22.027 44.1615 22.9445 44.9466C23.835 45.7046 25.1843 45.6775 26.0478 44.8925C26.8844 44.1074 26.9383 42.9433 26.9653 41.8604C27.0733 39.2886 27.4511 36.6355 28.8273 34.4427C28.9622 34.2261 29.2051 34.0095 29.421 34.1178C29.34 35.3631 28.8003 36.6896 28.5305 37.935C28.2336 39.2886 28.0177 40.6422 27.9098 42.0228C27.8558 42.7267 27.8828 43.0516 28.7194 43.0245C35.8975 42.9974 43.1026 42.9974 50.2807 43.0245C51.1172 43.0245 51.1712 42.7267 51.1172 42.0228C51.0093 40.5609 50.7664 39.099 50.4426 37.6642C50.3886 37.3664 49.9029 35.5797 49.7679 34.6592C49.714 34.3073 49.714 34.0637 49.7949 34.0907C49.9568 34.1178 50.0648 34.2802 50.1187 34.4156C51.2521 36.6896 51.9268 39.1803 52.0347 41.725C52.0887 42.6455 52.0617 43.593 52.5474 44.3781C52.9792 45.109 53.8427 45.5422 54.6793 45.5151C55.5158 45.461 56.3254 44.9195 56.7032 44.1615C57 43.5118 57 42.835 56.973 42.1582Z" fill="white"/>
<path d="M51.1712 44.0532C51.0363 43.8908 50.8204 43.8637 50.6045 43.8366C50.5236 43.8366 50.4696 43.8366 50.3886 43.8366C46.7726 43.8366 43.1296 43.8366 39.5135 43.8366C35.8975 43.8366 32.2545 43.8366 28.6384 43.8366C28.5845 43.8366 28.5035 43.8366 28.4226 43.8366C28.2067 43.8366 27.9908 43.8908 27.8559 44.0532C27.7209 44.2156 27.7209 44.4322 27.7209 44.6217C27.7209 44.9466 27.7209 45.2985 27.7209 45.6234C27.7209 45.9212 27.7209 46.219 27.7209 46.5168C27.7209 47.7621 27.8019 48.9803 27.9638 50.2256C28.2876 52.6892 28.9083 55.0986 29.7988 57.3997C30.5814 59.403 31.5799 61.3251 32.7942 63.1119C32.9291 63.3285 33.091 63.545 33.091 63.7887C33.091 64.2218 32.6323 64.4926 32.2815 64.7633C32.1196 64.8716 31.9576 65.034 31.8497 65.2235C31.6878 65.4942 31.9037 65.8462 32.2275 65.8462L38.3802 65.8732C38.596 65.8732 38.8389 65.8462 38.9738 65.6837C39.0548 65.5754 39.0818 65.413 39.0818 65.2506L39.2707 58.0765H39.2977C39.4056 58.0765 39.4596 58.0765 39.4866 58.0765H39.5135C39.5405 58.0765 39.5945 58.0765 39.7024 58.0765C39.7024 58.0765 39.7024 58.0765 39.7294 58.0765L39.9183 65.2506C39.9183 65.3859 39.9183 65.5484 40.0263 65.6837C40.1612 65.8462 40.4041 65.8732 40.6199 65.8732L46.7726 65.8462C47.0964 65.8462 47.2853 65.4942 47.1504 65.2235C47.0425 65.034 46.8805 64.8716 46.7186 64.7633C46.3678 64.5196 45.9361 64.2218 45.9091 63.7887C45.9091 63.545 46.044 63.3014 46.2059 63.1119C47.4202 61.3251 48.4187 59.403 49.2013 57.3997C50.0918 55.0986 50.7125 52.6892 51.0363 50.2256C51.1982 49.0074 51.2792 47.7621 51.2792 46.5168C51.2792 46.219 51.2792 45.9212 51.2792 45.6234C51.2792 45.2985 51.2792 44.9466 51.2792 44.6217C51.3061 44.4322 51.3061 44.2156 51.1712 44.0532Z" fill="white"/>
</g>
<defs>
<clipPath id="clip0_1874_18570">
<rect width="35" height="53.8462" fill="white" transform="translate(22 12)"/>
</clipPath>
</defs>
</svg>
