<svg width="167" height="176" viewBox="0 0 167 176" fill="none" xmlns="http://www.w3.org/2000/svg">
<g filter="url(#filter0_d_2289_21385)">
<rect x="9" y="3" width="149" height="158" rx="22" fill="white"/>
<rect x="9.5" y="3.5" width="148" height="157" rx="21.5" stroke="black" stroke-opacity="0.3"/>
</g>
<path d="M67.233 123.818H68.7045L72.1648 132.27H72.2841L75.7443 123.818H77.2159V134H76.0625V126.264H75.9631L72.7812 134H71.6676L68.4858 126.264H68.3864V134H67.233V123.818ZM82.4761 134.179C81.9922 134.179 81.553 134.088 81.1586 133.906C80.7642 133.72 80.451 133.453 80.219 133.105C79.987 132.754 79.871 132.33 79.871 131.832C79.871 131.395 79.9572 131.04 80.1295 130.768C80.3019 130.493 80.5322 130.278 80.8206 130.122C81.1089 129.966 81.4271 129.85 81.7751 129.774C82.1264 129.695 82.4794 129.632 82.8341 129.585C83.2981 129.526 83.6743 129.481 83.9626 129.451C84.2543 129.418 84.4664 129.363 84.599 129.287C84.7349 129.211 84.8028 129.078 84.8028 128.889V128.849C84.8028 128.359 84.6686 127.978 84.4001 127.706C84.135 127.434 83.7323 127.298 83.192 127.298C82.6319 127.298 82.1927 127.421 81.8745 127.666C81.5564 127.911 81.3326 128.173 81.2034 128.452L80.0897 128.054C80.2886 127.59 80.5538 127.229 80.8852 126.97C81.2199 126.708 81.5845 126.526 81.9789 126.423C82.3767 126.317 82.7678 126.264 83.1522 126.264C83.3975 126.264 83.6792 126.294 83.9974 126.354C84.3189 126.41 84.6288 126.528 84.9271 126.707C85.2287 126.886 85.4789 127.156 85.6778 127.517C85.8767 127.878 85.9761 128.362 85.9761 128.969V134H84.8028V132.966H84.7431C84.6636 133.132 84.531 133.309 84.3454 133.498C84.1598 133.687 83.9129 133.848 83.6047 133.98C83.2964 134.113 82.9202 134.179 82.4761 134.179ZM82.6551 133.125C83.1191 133.125 83.5102 133.034 83.8284 132.852C84.1499 132.669 84.3918 132.434 84.5542 132.146C84.7199 131.857 84.8028 131.554 84.8028 131.236V130.162C84.7531 130.222 84.6437 130.276 84.4747 130.326C84.309 130.372 84.1167 130.414 83.898 130.45C83.6825 130.483 83.4721 130.513 83.2666 130.54C83.0644 130.563 82.9003 130.583 82.7744 130.599C82.4695 130.639 82.1844 130.704 81.9193 130.793C81.6574 130.879 81.4453 131.01 81.2829 131.186C81.1238 131.358 81.0443 131.594 81.0443 131.892C81.0443 132.3 81.1951 132.608 81.4967 132.817C81.8016 133.022 82.1877 133.125 82.6551 133.125ZM89.9909 123.818V134H88.8176V123.818H89.9909ZM96.0416 134.159C95.3058 134.159 94.6711 133.997 94.1375 133.672C93.6072 133.344 93.1978 132.886 92.9095 132.3C92.6244 131.71 92.4819 131.024 92.4819 130.241C92.4819 129.459 92.6244 128.77 92.9095 128.173C93.1978 127.573 93.5989 127.106 94.1126 126.771C94.6297 126.433 95.2329 126.264 95.9223 126.264C96.32 126.264 96.7127 126.33 97.1005 126.463C97.4883 126.596 97.8413 126.811 98.1595 127.109C98.4777 127.404 98.7312 127.795 98.9201 128.283C99.1091 128.77 99.2035 129.37 99.2035 130.082V130.58H93.3172V129.565H98.0103C98.0103 129.134 97.9242 128.75 97.7518 128.412C97.5828 128.074 97.3408 127.807 97.026 127.612C96.7144 127.416 96.3465 127.318 95.9223 127.318C95.4549 127.318 95.0506 127.434 94.7092 127.666C94.3711 127.895 94.1109 128.193 93.9287 128.561C93.7464 128.929 93.6552 129.323 93.6552 129.744V130.42C93.6552 130.997 93.7547 131.486 93.9535 131.887C94.1557 132.285 94.4358 132.588 94.7937 132.797C95.1517 133.002 95.5676 133.105 96.0416 133.105C96.3498 133.105 96.6282 133.062 96.8768 132.976C97.1287 132.886 97.3458 132.754 97.5281 132.578C97.7104 132.399 97.8512 132.177 97.9507 131.912L99.0842 132.23C98.9649 132.615 98.7644 132.953 98.4826 133.244C98.2009 133.533 97.8529 133.758 97.4386 133.92C97.0243 134.08 96.5586 134.159 96.0416 134.159Z" fill="#C4C4C4"/>
<g opacity="0.3">
<path d="M72.3939 67.5372C75.2819 70.8179 79.4644 73.1045 83.8462 73.0051C88.0287 72.9057 92.0121 70.6191 94.7009 67.5372C96.6926 65.35 98.0868 62.7651 99.1822 59.9815C102.568 51.531 103.265 40.4957 97.2901 33.3376C96.1946 32.0452 94.9 30.8522 93.3067 29.858C89.0246 27.0743 83.4478 26.279 78.5682 27.6708C73.6885 29.0627 69.4064 32.6417 67.2155 37.2149C64.4272 42.9811 64.9251 49.8409 66.618 56.0048C67.7135 60.1803 69.4064 64.3558 72.3939 67.5372ZM68.7093 50.2386C70.0039 50.8351 70.0039 50.8351 69.9043 49.2444C69.6056 46.5601 69.506 43.8759 70.2031 41.291C70.3027 40.7939 70.5018 40.3962 70.701 39.9986C71.3981 38.8056 71.896 38.6067 73.091 39.2032C80.0619 42.1858 87.0329 42.1858 93.9042 39.1038C94.8005 38.7062 95.2984 38.905 95.8959 39.6009C96.6926 40.6945 96.8917 41.9869 97.0909 43.2793C97.3897 45.8642 97.0909 48.3496 96.8917 50.9345C97.788 50.7356 98.5847 49.6421 99.1822 50.2386C99.6801 50.7356 99.1822 51.8292 98.983 52.6246C98.0868 57.6949 96.1946 62.4669 92.4104 66.1453C86.8337 71.7127 79.564 71.6133 74.0869 65.8471C69.9043 61.4727 68.1118 56.0048 67.5143 50.1391C68.1118 49.9403 68.4105 50.1391 68.7093 50.2386Z" fill="#C4C4C4"/>
<path d="M119.896 93.5845C119.796 92.6898 119.697 91.795 119.597 90.9002C119.298 89.0113 118.8 87.2218 118.004 85.5317C115.913 80.7597 112.327 76.783 107.946 74.0987C105.854 72.8063 103.564 71.8121 101.174 71.2156C100.576 71.1162 99.979 70.9174 99.4811 71.1162C98.286 71.315 97.589 72.6075 96.7923 73.6016C94.9002 76.0871 92.0122 77.6777 89.0247 78.4731C86.0371 79.169 82.8504 79.0696 79.7633 78.6719C75.5808 78.0754 70.9003 76.3853 69.3069 72.508C69.1078 72.011 68.9086 71.5139 68.5103 71.315C68.1119 71.1162 67.7136 71.1162 67.3153 71.2156C61.7385 72.2098 56.5601 75.0929 52.8755 79.3678C49.1909 83.5434 47 89.1107 47 94.7775C47 97.4618 47.4979 100.245 48.9917 102.433C50.6846 104.918 53.473 106.509 56.4605 107.205C59.3485 107.901 62.4356 107.901 65.4231 108C72.3941 108 79.2654 108 86.2363 108C91.116 108 95.9956 108 100.875 108C104.062 108 107.448 108 110.535 107.205C113.722 106.409 116.709 104.719 118.402 101.936C119.896 99.4501 120.195 96.3682 119.896 93.5845ZM66.9169 107.503C67.1161 107.503 67.2157 107.602 67.4148 107.702C67.2157 107.602 67.1161 107.602 66.9169 107.503Z" fill="#C4C4C4"/>
</g>
<defs>
<filter id="filter0_d_2289_21385" x="0" y="0" width="167" height="176" filterUnits="userSpaceOnUse" color-interpolation-filters="sRGB">
<feFlood flood-opacity="0" result="BackgroundImageFix"/>
<feColorMatrix in="SourceAlpha" type="matrix" values="0 0 0 0 0 0 0 0 0 0 0 0 0 0 0 0 0 0 127 0" result="hardAlpha"/>
<feOffset dy="6"/>
<feGaussianBlur stdDeviation="4.5"/>
<feComposite in2="hardAlpha" operator="out"/>
<feColorMatrix type="matrix" values="0 0 0 0 0 0 0 0 0 0 0 0 0 0 0 0 0 0 0.08 0"/>
<feBlend mode="normal" in2="BackgroundImageFix" result="effect1_dropShadow_2289_21385"/>
<feBlend mode="normal" in="SourceGraphic" in2="effect1_dropShadow_2289_21385" result="shape"/>
</filter>
</defs>
</svg>
