<svg width="167" height="176" viewBox="0 0 167 176" fill="none" xmlns="http://www.w3.org/2000/svg">
<g filter="url(#filter0_d_2289_21372)">
<rect x="9" y="3" width="149" height="158" rx="22" fill="white"/>
<rect x="9.5" y="3.5" width="148" height="157" rx="21.5" stroke="#498AEE"/>
</g>
<path d="M59.233 134V123.818H65.3381V124.912H60.4659V128.352H64.8807V129.446H60.4659V134H59.233ZM70.6318 134.159C69.896 134.159 69.2613 133.997 68.7277 133.672C68.1974 133.344 67.7881 132.886 67.4997 132.3C67.2147 131.71 67.0722 131.024 67.0722 130.241C67.0722 129.459 67.2147 128.77 67.4997 128.173C67.7881 127.573 68.1891 127.106 68.7028 126.771C69.2199 126.433 69.8231 126.264 70.5125 126.264C70.9102 126.264 71.303 126.33 71.6908 126.463C72.0786 126.596 72.4315 126.811 72.7497 127.109C73.0679 127.404 73.3214 127.795 73.5104 128.283C73.6993 128.77 73.7937 129.37 73.7937 130.082V130.58H67.9074V129.565H72.6006C72.6006 129.134 72.5144 128.75 72.342 128.412C72.173 128.074 71.9311 127.807 71.6162 127.612C71.3046 127.416 70.9367 127.318 70.5125 127.318C70.0452 127.318 69.6408 127.434 69.2994 127.666C68.9614 127.895 68.7012 128.193 68.5189 128.561C68.3366 128.929 68.2455 129.323 68.2455 129.744V130.42C68.2455 130.997 68.3449 131.486 68.5437 131.887C68.7459 132.285 69.026 132.588 69.3839 132.797C69.7419 133.002 70.1579 133.105 70.6318 133.105C70.9401 133.105 71.2185 133.062 71.467 132.976C71.7189 132.886 71.936 132.754 72.1183 132.578C72.3006 132.399 72.4415 132.177 72.5409 131.912L73.6744 132.23C73.5551 132.615 73.3546 132.953 73.0729 133.244C72.7911 133.533 72.4431 133.758 72.0288 133.92C71.6145 134.08 71.1489 134.159 70.6318 134.159ZM76.2786 134V126.364H77.4121V127.557H77.5115C77.6706 127.149 77.9275 126.833 78.2821 126.607C78.6367 126.379 79.0626 126.264 79.5598 126.264C80.0636 126.264 80.4829 126.379 80.8176 126.607C81.1557 126.833 81.4192 127.149 81.6081 127.557H81.6876C81.8832 127.162 82.1765 126.849 82.5676 126.617C82.9587 126.382 83.4277 126.264 83.9746 126.264C84.6573 126.264 85.2158 126.478 85.65 126.906C86.0842 127.33 86.3013 127.991 86.3013 128.889V134H85.128V128.889C85.128 128.326 84.9739 127.923 84.6656 127.681C84.3574 127.439 83.9945 127.318 83.5768 127.318C83.0399 127.318 82.624 127.481 82.329 127.805C82.034 128.127 81.8865 128.535 81.8865 129.028V134H80.6933V128.77C80.6933 128.336 80.5525 127.986 80.2707 127.721C79.989 127.452 79.6261 127.318 79.182 127.318C78.877 127.318 78.592 127.399 78.3268 127.562C78.065 127.724 77.8529 127.95 77.6905 128.238C77.5314 128.523 77.4518 128.853 77.4518 129.227V134H76.2786ZM91.3937 134.179C90.9098 134.179 90.4706 134.088 90.0762 133.906C89.6818 133.72 89.3686 133.453 89.1366 133.105C88.9046 132.754 88.7886 132.33 88.7886 131.832C88.7886 131.395 88.8747 131.04 89.0471 130.768C89.2194 130.493 89.4498 130.278 89.7381 130.122C90.0265 129.966 90.3447 129.85 90.6927 129.774C91.044 129.695 91.397 129.632 91.7516 129.585C92.2156 129.526 92.5918 129.481 92.8802 129.451C93.1719 129.418 93.384 129.363 93.5165 129.287C93.6524 129.211 93.7204 129.078 93.7204 128.889V128.849C93.7204 128.359 93.5862 127.978 93.3177 127.706C93.0525 127.434 92.6498 127.298 92.1096 127.298C91.5495 127.298 91.1103 127.421 90.7921 127.666C90.4739 127.911 90.2502 128.173 90.121 128.452L89.0073 128.054C89.2062 127.59 89.4713 127.229 89.8028 126.97C90.1375 126.708 90.5021 126.526 90.8965 126.423C91.2942 126.317 91.6853 126.264 92.0698 126.264C92.3151 126.264 92.5968 126.294 92.915 126.354C93.2365 126.41 93.5464 126.528 93.8447 126.707C94.1463 126.886 94.3965 127.156 94.5954 127.517C94.7942 127.878 94.8937 128.362 94.8937 128.969V134H93.7204V132.966H93.6607C93.5812 133.132 93.4486 133.309 93.263 133.498C93.0774 133.687 92.8305 133.848 92.5222 133.98C92.214 134.113 91.8378 134.179 91.3937 134.179ZM91.5727 133.125C92.0367 133.125 92.4278 133.034 92.746 132.852C93.0674 132.669 93.3094 132.434 93.4718 132.146C93.6375 131.857 93.7204 131.554 93.7204 131.236V130.162C93.6707 130.222 93.5613 130.276 93.3923 130.326C93.2265 130.372 93.0343 130.414 92.8156 130.45C92.6001 130.483 92.3897 130.513 92.1842 130.54C91.982 130.563 91.8179 130.583 91.692 130.599C91.3871 130.639 91.102 130.704 90.8369 130.793C90.575 130.879 90.3629 131.01 90.2005 131.186C90.0414 131.358 89.9619 131.594 89.9619 131.892C89.9619 132.3 90.1127 132.608 90.4143 132.817C90.7192 133.022 91.1053 133.125 91.5727 133.125ZM98.9085 123.818V134H97.7352V123.818H98.9085ZM104.959 134.159C104.223 134.159 103.589 133.997 103.055 133.672C102.525 133.344 102.115 132.886 101.827 132.3C101.542 131.71 101.4 131.024 101.4 130.241C101.4 129.459 101.542 128.77 101.827 128.173C102.115 127.573 102.516 127.106 103.03 126.771C103.547 126.433 104.15 126.264 104.84 126.264C105.238 126.264 105.63 126.33 106.018 126.463C106.406 126.596 106.759 126.811 107.077 127.109C107.395 127.404 107.649 127.795 107.838 128.283C108.027 128.77 108.121 129.37 108.121 130.082V130.58H102.235V129.565H106.928C106.928 129.134 106.842 128.75 106.669 128.412C106.5 128.074 106.258 127.807 105.944 127.612C105.632 127.416 105.264 127.318 104.84 127.318C104.373 127.318 103.968 127.434 103.627 127.666C103.289 127.895 103.029 128.193 102.846 128.561C102.664 128.929 102.573 129.323 102.573 129.744V130.42C102.573 130.997 102.672 131.486 102.871 131.887C103.073 132.285 103.353 132.588 103.711 132.797C104.069 133.002 104.485 133.105 104.959 133.105C105.267 133.105 105.546 133.062 105.794 132.976C106.046 132.886 106.263 132.754 106.446 132.578C106.628 132.399 106.769 132.177 106.868 131.912L108.002 132.23C107.882 132.615 107.682 132.953 107.4 133.244C107.118 133.533 106.77 133.758 106.356 133.92C105.942 134.08 105.476 134.159 104.959 134.159Z" fill="black"/>
<g clip-path="url(#clip0_2289_21372)">
<path d="M104.2 75.3418C105 75.044 106.4 75.2426 107.2 75.4411C108.1 75.7389 108.9 75.8382 110.1 75.9374C109.2 75.2426 108.3 74.647 107.6 73.7536C106.9 72.8602 106.3 71.9668 105.8 70.9742C104.8 68.9889 104.1 66.9043 103.6 64.8198C103.4 63.9264 103.2 63.1323 103.1 62.2389C102.4 58.2683 102.8 54.397 102.6 50.4264C102.4 45.7609 101.7 41.1948 99.6 36.9264C96.1 30.3749 90.7 26.8014 83.1 26.9999C75.8 27.1984 70.8 30.8712 67.6 37.3234C65.7 41.1948 65 45.3639 64.7 49.6323C64.5 52.8087 64.9 56.0845 64.5 59.2609C64.1 62.6359 63.6 65.7132 62.4 68.8896C61.9 70.3786 61.2 71.7683 60.3 73.0587C59.8 73.7536 59.3 74.4484 58.6 74.9448C58 75.3418 57.2 75.6396 56.8 76.2352C57.6 76.1359 58.5 76.1359 59.3 76.0367C59.4 76.0367 61.4 76.0367 61.3 76.2352C60.8 76.8308 59.6 77.2279 58.9 77.7242C58.1 78.2205 57.4 78.7168 56.6 79.3124C55.2 80.3051 54 81.5955 52.9 82.8859C50.7 85.5661 49.3 88.8418 48.6 92.2168C48.2 94.1029 48 96.0882 48 97.9742C48 103.93 50.8 106.908 56.8 107.801C58.9 108.099 61.1 108.099 63.3 108.099C76.9 107.901 90.6 107.901 104.3 108.099C106.5 108.099 108.8 108.099 111 107.801C116 107.107 118.8 104.327 119.3 99.4632C120.1 91.919 116.8 84.3749 111.1 79.5109C110.1 78.6176 109 77.9227 107.9 77.2279C107.3 76.9301 106.8 76.6323 106.2 76.3345C105.4 75.9374 104.6 75.7389 104.2 75.3418ZM97.6 75.4411C97.2 76.3345 96.6 77.2279 95.8 77.8234C94.1 79.3124 92.1 80.2058 90 80.7021C89.3 80.9007 88.8 81.1984 88.4 81.8933C86.8 84.4742 85.2 87.0551 83.6 89.7352C82.6 88.147 81.5 86.5587 80.6 84.8712C79.7 83.3823 79.1 81.8933 77.6 80.9007C76.4 80.2058 75 80.0073 73.9 79.4117C72.7 78.8161 71.7 77.8234 70.7 76.8308C69.5 75.6396 72.2 76.0367 72.8 76.1359C73.9 76.3345 75.5 76.7315 76.4 77.5257C75.8 77.0293 75.7 75.9374 75.4 75.2426C75.2 74.7462 74.9 74.1507 74.7 73.6543C74.6 73.3565 74.3 73.0587 74.3 72.7609C74.4 72.1654 75 72.6617 75.3 72.8602C75.6 73.0587 76 73.3565 76.3 73.5551C77 73.9521 77.7 74.3492 78.5 74.7462C80 75.4411 81.5 75.8382 83.2 75.8382C86.3 75.9374 89.3 74.8455 91.8 73.0587C92 72.9595 92.2 72.7609 92.4 72.7609C93.3 72.8602 91.7 75.2426 91.7 75.2426C92.4 75.4411 93.3 74.8455 94 74.7462C95 74.5477 96.1 74.647 97.1 74.5477C97.7 74.5477 97.8 74.8455 97.6 75.4411ZM94.7 66.7058C92.5 69.8823 89.6 72.3639 85.6 73.0587C81.6 73.7536 78.2 72.4632 75.3 69.783C72.2 66.9043 70.2 63.1323 69.1 59.0624C68.8 57.8712 68.5 56.6801 68.3 55.4889C68.2 54.6948 67.8 53.6029 68.9 53.4043C71.7 52.908 74.6 52.3124 77.3 51.3198C79.6 50.5257 81.8 49.533 84 48.4411C86.6 47.1507 89 45.6617 91.4 44.0734C91.7 43.8749 91.9 43.6764 92.2 43.5771C92.6 43.2793 93.3 42.8823 93.8 43.2793C94.2 43.6764 94.4 44.4705 94.5 45.0661C95.1 46.8529 95 48.5404 93.2 49.9301C95.1 50.1286 96.8 50.4264 98.5 50.6249C99.1 50.7242 99.6 50.8234 99.5 51.6176C99 56.9779 97.8 62.1396 94.7 66.7058Z" fill="#498AEE"/>
</g>
<path d="M138 16.3333C134.32 16.3333 131.333 19.32 131.333 23C131.333 26.68 134.32 29.6666 138 29.6666C141.68 29.6666 144.667 26.68 144.667 23C144.667 19.32 141.68 16.3333 138 16.3333ZM136.193 25.86L133.8 23.4666C133.54 23.2066 133.54 22.7866 133.8 22.5266C134.06 22.2666 134.48 22.2666 134.74 22.5266L136.667 24.4466L141.253 19.86C141.513 19.6 141.933 19.6 142.193 19.86C142.453 20.12 142.453 20.54 142.193 20.8L137.133 25.86C136.88 26.12 136.453 26.12 136.193 25.86Z" fill="#498AEE"/>
<defs>
<filter id="filter0_d_2289_21372" x="0" y="0" width="167" height="176" filterUnits="userSpaceOnUse" color-interpolation-filters="sRGB">
<feFlood flood-opacity="0" result="BackgroundImageFix"/>
<feColorMatrix in="SourceAlpha" type="matrix" values="0 0 0 0 0 0 0 0 0 0 0 0 0 0 0 0 0 0 127 0" result="hardAlpha"/>
<feOffset dy="6"/>
<feGaussianBlur stdDeviation="4.5"/>
<feComposite in2="hardAlpha" operator="out"/>
<feColorMatrix type="matrix" values="0 0 0 0 0 0 0 0 0 0 0 0 0 0 0 0 0 0 0.08 0"/>
<feBlend mode="normal" in2="BackgroundImageFix" result="effect1_dropShadow_2289_21372"/>
<feBlend mode="normal" in="SourceGraphic" in2="effect1_dropShadow_2289_21372" result="shape"/>
</filter>
<clipPath id="clip0_2289_21372">
<rect width="71.3" height="81" fill="white" transform="translate(48 27)"/>
</clipPath>
</defs>
</svg>
