<svg width="26" height="26" viewBox="0 0 26 26" fill="none" xmlns="http://www.w3.org/2000/svg">
    <path
        d="M23 0.5H3C1.625 0.5 0.5 1.625 0.5 3V25.5L5.5 20.5H23C24.375 20.5 25.5 19.375 25.5 18V3C25.5 1.625 24.375 0.5 23 0.5ZM21.75 18H5.5L3 20.5V4.25C3 3.5625 3.5625 3 4.25 3H21.75C22.4375 3 23 3.5625 23 4.25V16.75C23 17.4375 22.4375 18 21.75 18Z"
        fill="#498AEE" />
    <path
        d="M15.8542 9.54167C16.6481 9.54167 17.2917 8.89808 17.2917 8.10417C17.2917 7.31026 16.6481 6.66667 15.8542 6.66667C15.0603 6.66667 14.4167 7.31026 14.4167 8.10417C14.4167 8.89808 15.0603 9.54167 15.8542 9.54167Z"
        fill="#498AEE" />
    <path
        d="M9.14583 9.54167C9.93974 9.54167 10.5833 8.89808 10.5833 8.10417C10.5833 7.31026 9.93974 6.66667 9.14583 6.66667C8.35192 6.66667 7.70833 7.31026 7.70833 8.10417C7.70833 8.89808 8.35192 9.54167 9.14583 9.54167Z"
        fill="#498AEE" />
    <path
        d="M16.7263 12.3113C16.3908 12.1004 15.9404 12.2058 15.7392 12.5413C15.03 13.6625 13.8225 14.3333 12.5 14.3333C11.1775 14.3333 9.97 13.6625 9.26083 12.5317C9.05 12.1963 8.60917 12.0908 8.27375 12.3017C7.93833 12.5125 7.83292 12.9533 8.04375 13.2888C9.02125 14.8508 10.6792 15.7708 12.5 15.7708C14.3208 15.7708 15.9788 14.8413 16.9563 13.2983C17.1671 12.9629 17.0617 12.5221 16.7263 12.3113Z"
        fill="#498AEE" />
</svg>