<svg width="56" height="56" viewBox="0 0 56 56" fill="none" xmlns="http://www.w3.org/2000/svg">
<g clip-path="url(#clip0_2_14086)">
<path d="M18.6658 31.5271C18.6774 32.1368 18.6658 32.7582 18.6658 33.3678V35.2086H18.6543C18.6543 36.4396 18.6658 37.659 18.6543 38.89C18.6427 39.7107 18.2846 40.3321 17.5223 40.6369C16.8293 40.9066 16.1941 40.7659 15.6512 40.25C15.3509 39.9569 15.1661 39.6052 15.1314 39.1714C14.9928 37.5183 14.8542 35.8534 14.7272 34.2003C14.6579 33.3561 14.5886 32.5119 14.5308 31.6678C14.4615 30.4016 15.3047 29.4284 16.5059 29.3815C17.684 29.3229 18.6312 30.2491 18.6658 31.5271Z" fill="#498AEE"/>
<path d="M40.334 15.3359C39.1328 15.1483 37.92 15.2773 36.7072 15.2655C36.43 15.2655 36.2798 15.4179 36.2798 15.6993C36.2798 16.0628 36.2336 16.4262 36.1759 16.7897C35.6908 20.0373 34.0622 22.5346 31.3248 24.2581C29.3382 25.5009 27.1552 25.9816 24.8336 25.6885C22.3734 25.3837 20.2597 24.305 18.5618 22.476C16.8177 20.6001 15.9284 18.3256 15.7782 15.7462C15.7551 15.2655 15.6743 15.1835 15.2123 15.1835C14.3922 15.1717 13.5721 15.16 12.7521 15.1835C11.6779 15.2186 10.6384 15.4531 9.71437 16.0511C8.95205 16.5435 8.27059 17.1766 7.79703 17.9621C6.73441 19.627 7.00007 21.7726 7.11557 23.6602C7.17332 24.645 7.20797 25.6299 7.31192 26.6147C7.42743 27.881 7.51983 29.1472 7.61223 30.4134C7.70463 31.6796 7.82013 32.9459 7.91253 34.2121C8.03959 35.7949 8.16664 37.3894 8.29369 38.9722C8.43229 40.6488 8.55935 42.3137 8.69795 43.9902C8.8481 45.9482 9.63352 47.5427 11.2621 48.68C12.0706 49.2428 12.96 49.5124 13.9186 49.5945H14.2651C14.9235 49.5945 15.5934 49.5945 16.2518 49.5945C17.1989 49.5945 18.1576 49.5945 19.1047 49.5945C20.0518 49.5945 21.0105 49.5945 21.9576 49.5945C22.8816 49.5945 23.8056 49.5945 24.7181 49.5945C25.6652 49.5945 26.6239 49.5945 27.571 49.5945C28.5181 49.5945 29.4768 49.5945 30.4239 49.5945C31.8099 49.5945 33.2075 49.5945 34.5935 49.6062C35.9564 49.6062 37.3887 49.7469 38.7285 49.5241C39.075 49.4655 39.41 49.3717 39.7334 49.2428C40.3109 49.0083 40.8537 48.6565 41.3273 48.2345C42.2282 47.4255 42.8173 46.3468 43.0829 45.1627C43.106 45.0689 43.1176 44.9868 43.1407 44.893C43.3832 43.5564 43.3948 42.1964 43.5103 40.8364C43.6142 39.6405 43.7182 38.4563 43.8106 37.2604C43.903 36.0646 44.0185 34.8804 44.1109 33.6845C44.2033 32.5121 44.3072 31.3279 44.3996 30.1555C44.5382 28.5844 44.6537 27.0133 44.8039 25.4423C44.9079 24.2816 44.9541 23.1091 45.1042 21.9484C45.5316 18.7828 43.4179 15.8283 40.334 15.3359ZM21.253 35.2908H21.2068C21.2068 36.6391 21.2761 37.9874 21.1953 39.3239C21.0567 41.6454 19.1393 43.404 16.8639 43.404C14.6232 43.404 12.7405 41.6805 12.5442 39.406C12.3247 36.8735 12.1053 34.3411 11.9436 31.8086C11.7819 29.3113 13.5144 27.1306 15.8706 26.7906C18.3308 26.4271 20.56 27.9747 21.1491 30.4486C21.2415 30.8589 21.2761 31.281 21.2761 31.7148C21.253 32.899 21.253 34.0949 21.253 35.2908ZM27.2707 42.8295C27.2707 43.4392 27.0628 43.9082 26.4968 44.1778C26.0002 44.4123 25.5382 44.3185 25.1339 43.9785C24.7527 43.662 24.6719 43.2281 24.6719 42.7592C24.6719 40.6253 24.6719 38.4915 24.6719 36.3577H24.7065C24.7065 34.2356 24.7065 32.1252 24.7065 30.0031C24.7065 29.1003 25.2147 28.5258 25.9886 28.5258C26.7625 28.5258 27.2938 29.112 27.2938 30.0031C27.2938 34.2707 27.2822 38.5501 27.2707 42.8295ZM39.9297 33.6376C39.7796 35.6308 39.6179 37.6239 39.41 39.617C39.179 41.8095 37.1808 43.4978 34.9631 43.4275C32.7455 43.3571 30.8512 41.5516 30.7704 39.3357C30.7126 37.9756 30.7588 36.6156 30.7588 35.2556H30.7704C30.7704 33.9307 30.7473 32.5941 30.7704 31.2693C30.8281 28.9127 32.7686 26.8961 35.0786 26.7671C37.5273 26.6264 39.641 28.3148 40.0337 30.7065C40.1954 31.7031 40.0106 32.6645 39.9297 33.6376Z" fill="#498AEE"/>
<path d="M35.4713 29.4047C34.3047 29.3813 33.3807 30.2841 33.3576 31.48C33.346 32.1365 33.346 32.7931 33.346 33.4497C33.346 35.2669 33.3345 37.0725 33.3345 38.8898C33.3345 39.816 33.808 40.4843 34.5819 40.7305C35.7138 41.0705 36.7533 40.3201 36.8804 39.0422C36.9497 38.4208 36.9844 37.7877 37.0306 37.1663C37.1923 35.3021 37.3424 33.4379 37.4926 31.6089C37.5272 30.3896 36.6147 29.4165 35.4713 29.4047Z" fill="#498AEE"/>
<path d="M18.6541 33.3678V35.2085H18.6425C18.6425 36.4396 18.6541 37.6589 18.6425 38.89C18.631 39.7107 18.2729 40.3321 17.5106 40.6369C16.8176 40.9066 16.1823 40.7659 15.6395 40.25C15.3392 39.9569 15.1544 39.6052 15.1197 39.1714C14.9811 37.5182 14.8425 35.8534 14.7155 34.2002C14.6462 33.3561 14.5769 32.5119 14.5191 31.6678C14.4498 30.4015 15.293 29.4284 16.4942 29.3815C17.6954 29.3229 18.6425 30.2608 18.6656 31.5388C18.6656 32.1367 18.6541 32.7581 18.6541 33.3678Z" fill="#FEFEFE"/>
<path d="M37.516 31.5979C37.3658 33.4386 37.2041 35.3028 37.054 37.1552C36.9962 37.7766 36.9616 38.4097 36.9038 39.0311C36.7652 40.3091 35.7257 41.0594 34.6053 40.7194C33.8315 40.4849 33.3579 39.8049 33.3579 38.8787C33.3579 37.0614 33.3695 35.2559 33.3695 33.4386C33.3695 32.782 33.3579 32.1255 33.381 31.4689C33.4041 30.273 34.3281 29.3819 35.4947 29.3937C36.6151 29.4171 37.5276 30.3902 37.516 31.5979Z" fill="#FEFEFE"/>
<path d="M26.0233 7.45703C21.7266 7.45703 18.25 10.9861 18.25 15.3241C18.2385 19.6855 21.7497 23.2498 26.0349 23.238C30.3315 23.2263 33.8082 19.6738 33.7966 15.3124C33.7966 10.9626 30.32 7.45703 26.0233 7.45703ZM26.5662 16.5317C26.0695 16.7545 25.596 16.6958 25.2033 16.3324C24.5218 15.6875 23.8634 15.0193 23.2282 14.3158C22.7662 13.8116 22.8239 13.0261 23.309 12.5337C23.7826 12.0647 24.568 12.0178 25.0646 12.4985C25.7346 13.1434 26.3698 13.8116 27.0166 14.4799C27.2476 14.7144 27.34 15.031 27.3285 15.4765C27.2938 15.8986 27.0628 16.3089 26.5662 16.5317Z" fill="#498AEE"/>
<path d="M47.8071 10.7402C48.2691 10.2595 48.6156 9.87261 48.9852 9.50916C49.5627 8.93466 50.3366 8.91121 50.8679 9.43881C51.3992 9.96641 51.3877 10.7754 50.8217 11.3616C49.7129 12.4989 48.581 13.6361 47.4491 14.7617C46.8369 15.3596 46.1092 15.3479 45.4971 14.7382C44.3998 13.6244 43.3025 12.5106 42.2053 11.3851C41.6162 10.7754 41.5815 9.97813 42.1244 9.43881C42.6557 8.89949 43.4527 8.93466 44.0417 9.53261C44.4113 9.89606 44.7694 10.2712 45.1968 10.7168C45.1968 10.154 45.1968 9.69675 45.1968 9.2395C45.1968 8.1843 45.1968 7.12911 45.1968 6.08564C45.2199 5.26494 45.7743 4.66699 46.5019 4.66699C47.2411 4.66699 47.7956 5.24149 47.7956 6.06219C47.7956 7.43394 47.7956 8.8057 47.7956 10.1892C47.8071 10.3181 47.8071 10.4588 47.8071 10.7402Z" fill="#498AEE"/>
<path d="M18.6541 33.3678V35.2085H18.6425C18.6425 36.4396 18.6541 37.6589 18.6425 38.89C18.631 39.7107 18.2729 40.3321 17.5106 40.6369C16.8176 40.9066 16.1823 40.7659 15.6395 40.25C15.3392 39.9569 15.1544 39.6052 15.1197 39.1714C14.9811 37.5182 14.8425 35.8534 14.7155 34.2002C14.6462 33.3561 14.5769 32.5119 14.5191 31.6678C14.4498 30.4015 15.293 29.4284 16.4942 29.3815C17.6954 29.3229 18.6425 30.2608 18.6656 31.5388C18.6656 32.1367 18.6541 32.7581 18.6541 33.3678Z" fill="#498AEE"/>
<path d="M37.516 31.5979C37.3658 33.4386 37.2041 35.3028 37.054 37.1552C36.9962 37.7766 36.9616 38.4097 36.9038 39.0311C36.7652 40.3091 35.7257 41.0594 34.6053 40.7194C33.8315 40.4849 33.3579 39.8049 33.3579 38.8787C33.3579 37.0614 33.3695 35.2559 33.3695 33.4386C33.3695 32.782 33.3579 32.1255 33.381 31.4689C33.4041 30.273 34.3281 29.3819 35.4947 29.3937C36.6151 29.4171 37.5276 30.3902 37.516 31.5979Z" fill="#498AEE"/>
</g>
<defs>
<clipPath id="clip0_2_14086">
<rect width="44.2604" height="44.963" fill="white" transform="translate(7 4.66699)"/>
</clipPath>
</defs>
</svg>
